#!OML:ASF E:/inclinewalkrobotboard/Project1/Captureday1/Session1/subject1.ASF
:FULLY-SPECIFIED
:DEGREES
1
root 0 0 0 1.786716877678316 -10.397746061747702 0.5286475832691943
lowerback 0.8880723932273431 -1.7985299768245546 -2.2399455623885167
upperback 0.14262755051431897 -2.321551388177342 1.6960976122319615
thorax -0.12104300207838903 -1.1907255302290876 2.9506792715961128
lowerneck -23.11749031143167 -1.031262694575035 -7.334872341280592
upperneck 30.450074584646156 1.0558123725116433 0.8980398801214584
head 14.083764390723559 -0.3145740436836336 1.91771426734693
rclavicle -4.09051575906045E-15 -1.97569024321185E-15
rhumerus -32.910829746295676 -5.583140089536702 -80.18775529638285
rradius 29.96728862596515
rwrist 19.370293070076883
rhand -17.374339384948346 9.295254180429223
rfingers 7.125019999999961
rthumb 8.869328946758467 -20.54114310554341
lclavicle -1.981211628970225E-15 -7.000274607419453E-16
lhumerus -35.16918770728801 -12.488652169841046 100.0402593962148
lradius 59.55335282132344
lwrist 6.033367922146397
lhand -26.586449593725916 23.052747299146066
lfingers 7.1250199999999895
lthumb 0.03191995530933145 53.1897368304625
rfemur -16.207900389527538 4.604981811183819 30.77750036222291
rtibia 43.44096414807336
rfoot -0.8975482221260371 -4.685652823622842
rtoes 17.894736720754395
lfemur -12.984519826874457 1.1637145763021928 -16.49887725697242
ltibia 55.52452452935345
lfoot 5.072450782319553 -10.758583940841367
ltoes -3.9155834731946086
2
root 0 0 0 1.7919475987257323 -10.440409484514154 0.45624397278805384
lowerback 0.8161424635438648 -1.7894130361857097 -2.2172729680289733
upperback 0.1594626813592427 -2.30624974045774 1.6369217720107698
thorax -0.07104499975859024 -1.1871315309884558 2.873860919330752
lowerneck -22.317308649756697 -0.9601628470280468 -7.427563475087176
upperneck 32.177483937180924 1.1383420185023048 0.7261054560993436
head 14.587138600580356 -0.3498965196930611 1.912854042466724
rclavicle -3.748299956486088E-15 -7.56557098486776E-16
rhumerus -32.97920903398582 -5.85118445485556 -80.30292427090346
rradius 30.0293005620402
rwrist 19.563680728039873
rhand -17.294192104615355 9.129293735399317
rfingers 7.125019999999965
rthumb 8.948856296094228 -20.68413866339828
lclavicle -2.175438493535522E-15 -1.0031712928245049E-17
lhumerus -35.45521637708658 -12.692816809872472 100.23718780457331
lradius 59.503796708640095
lwrist 6.093821807443369
lhand -26.564369303507327 23.053952310810942
lfingers 7.1250199999999895
lthumb 0.05248554877637979 53.192047996396596
rfemur -14.212361664178264 5.018897286423626 31.800072108936718
rtibia 41.77878650886374
rfoot -3.293220201208497 -5.140772651287563
rtoes 17.307944334126688
lfemur -18.450035676027678 2.5971109272192225 -14.72298039854333
ltibia 57.947105413932
lfoot 0.597198297382926 -7.746822034718415
ltoes -5.708122485070826
3
root 0 0 0 1.8212097593538532 -10.506589844864191 0.4223211370160599
lowerback 0.7349960021301576 -1.8032948141779617 -2.208829438465605
upperback 0.19482361981234642 -2.3258505038330055 1.5969571131974205
thorax 0.005198331665370537 -1.1990384312237794 2.823770549690072
lowerneck -21.87517247937022 -0.9094087814704832 -7.50578032671085
upperneck 33.34179468720458 1.2141744432639303 0.601507657457145
head 14.940563879301402 -0.3662877778457594 1.9109190842312225
rclavicle -3.3527184336116554E-15 3.870821580692336E-16
rhumerus -32.94132181417506 -5.709860156072977 -80.41418552310488
rradius 30.122733290057926
rwrist 19.637449161561594
rhand -17.309664886683468 9.030119322249094
rfingers 7.125019999999967
rthumb 8.935592567138277 -20.760635525948366
lclavicle -2.8344792270417874E-15 9.882251559498224E-16
lhumerus -35.61723410606046 -13.407466389743366 100.09967648690207
lradius 59.74865617965092
lwrist 6.357767081107088
lhand -26.46827911028166 23.338766812905426
lfingers 7.125019999999986
lthumb 0.1423991484464917 53.48604132231413
rfemur -9.835425080812332 6.182538157148198 33.765988135375046
rtibia 36.61749138158756
rfoot -8.19143547834652 -5.942811775810245
rtoes 15.79857223079455
lfemur -21.113268011837487 2.9718711003441496 -13.760287473612085
ltibia 58.23954203616293
lfoot -1.5604225973566779 -6.24990619511526
ltoes -6.506552009348269
4
root 0 0 0 1.8390050318799065 -10.540623161273931 0.4059883344714846
lowerback 0.687824964835452 -1.8106148391531842 -2.2084929627103667
upperback 0.21074944347076785 -2.3368273199608294 1.5770683981667442
thorax 0.045080772346869136 -1.205155459876072 2.8007408953430444
lowerneck -21.639735296509468 -0.8796273818067473 -7.551176692155202
upperneck 33.93101297910519 1.2583883184069948 0.542982795155007
head 15.118309851689174 -0.37228365720294465 1.9131243618108307
rclavicle -2.5593450227344477E-15 1.0495648258248767E-15
rhumerus -32.815168859584105 -5.328491230613842 -80.5270939706992
rradius 30.238556167293876
rwrist 19.57707368915896
rhand -17.393181018083148 9.01486007500239
rfingers 7.125019999999969
rthumb 8.856230369561413 -20.76310106445353
lclavicle -3.2169185490245038E-15 1.7153521260079143E-15
lhumerus -35.701245871858106 -14.081898489585562 99.88997360718182
lradius 60.010481821904676
lwrist 6.617064823948674
lhand -26.370737583820294 23.64022327711766
lfingers 7.125019999999983
lthumb 0.23425326014139092 53.79707963019893
rfemur -3.4915766685600067 7.617041486923046 36.13840164390052
rtibia 29.39872049827004
rfoot -14.411693455741148 -6.640493673143956
rtoes 12.79122523688287
lfemur -22.605205269071433 2.8978514307020906 -13.369271238422296
ltibia 57.18964952919454
lfoot -2.577098270221983 -5.315788435847571
ltoes -6.3417162390426345
5
root 0 0 0 1.8463182197597126 -10.553591875232764 0.39862570540180375
lowerback 0.6613327190316087 -1.8115789128249564 -2.2125674823083465
upperback 0.21084310287372032 -2.3386989224711328 1.5686251565629945
thorax 0.05852193193602684 -1.2060067606008409 2.793464003717049
lowerneck -21.51618280051922 -0.8643416927776886 -7.576242525440743
upperneck 34.19258377944362 1.2795950591869663 0.5241543733629563
head 15.195020254919996 -0.37427617116283407 1.917682616472369
rclavicle -1.7602490794447491E-15 1.3612682637190615E-15
rhumerus -32.57219382109751 -4.655388785156923 -80.669696783643
rradius 30.401414729863124
rwrist 19.353531749282748
rhand -17.560531040173704 9.089380598591571
rfingers 7.125019999999969
rthumb 8.695880632878985 -20.68765419757458
lclavicle -3.124194670512708E-15 2.0884787071246716E-15
lhumerus -35.68372879872268 -14.535337385337726 99.66974119822315
lradius 60.22130409996714
lwrist 6.797245647076531
lhand -26.301913638832136 23.87631379016932
lfingers 7.125019999999981
lthumb 0.29892468300787556 54.04005074364947
rfemur 2.037284463617379 8.843848808609541 37.72195053145582
rtibia 22.27077416946456
rfoot -19.078503456799563 -7.105041863058137
rtoes 9.053558759767217
lfemur -24.22628272161424 2.5763867668131915 -12.930191847681764
ltibia 54.68585695008855
lfoot -3.394951950492196 -4.069939832205607
ltoes -5.8994091092884275
6
root 0 0 0 1.8480363096224197 -10.558303229722158 0.395102913339234
lowerback 0.6457903264412921 -1.8101562082584142 -2.2166164063931104
upperback 0.20562789508305124 -2.3369252413543524 1.5648902727359968
thorax 0.06099519712620438 -1.2049306389275862 2.791758106837479
lowerneck -21.45135216130421 -0.8580213103999043 -7.590041781118545
upperneck 34.30997251846502 1.2876473736585463 0.5203754930328177
head 15.228653970607189 -0.37584540274965317 1.9215788307265826
rclavicle -1.422261030983772E-15 1.2721054392195682E-15
rhumerus -32.19165714427041 -3.5880995518611867 -80.85030498965682
rradius 30.62678871144016
rwrist 18.955954097369407
rhand -17.831498633064577 9.243904099348242
rfingers 7.125019999999967
rthumb 8.435482628287813 -20.541966894377328
lclavicle -2.6193699068428448E-15 2.1195232871646233E-15
lhumerus -35.641839763536375 -14.765440971992103 99.49423520364257
lradius 60.328901523764756
lwrist 6.910411664728031
lhand -26.249571229357883 24.033540064693568
lfingers 7.125019999999978
lthumb 0.34868666960942907 54.201704211020974
rfemur 4.480668016923428 9.412401087615242 38.15411302809484
rtibia 18.405535771865345
rfoot -20.79832421304757 -7.413506362907798
rtoes 6.419978340079648
lfemur -26.7367413792006 1.8329167368413848 -12.033627861354434
ltibia 49.288140140051944
lfoot -4.362513329676774 -1.7829744051300245
ltoes -5.31756402394832
7
root 0 0 0 1.8497953587994416 -10.56386242288895 0.3910179447257001
lowerback 0.6380028270981741 -1.810590541538574 -2.2148816720293882
upperback 0.20894596740462867 -2.3374387757549626 1.5602658024997522
thorax 0.06804926418845136 -1.2056539997957365 2.7859205096080912
lowerneck -21.409427101294824 -0.8573363529050306 -7.598666608284632
upperneck 34.42293997230146 1.2884240928658452 0.5113108289835893
head 15.26408289567772 -0.3801887735221574 1.9213924074842663
rclavicle -2.5599061469291094E-15 2.3499489734050426E-16
rhumerus -31.6332725614503 -1.7555739383503601 -81.05425129587573
rradius 30.94052016827056
rwrist 18.405677952564343
rhand -18.26663400091987 9.438989877897285
rfingers 7.125019999999967
rthumb 8.016572318974836 -20.36615693003368
lclavicle -2.1353757828981325E-15 1.934703662373442E-15
lhumerus -35.666763922538635 -14.874673377579835 99.36838387411473
lradius 60.30496430851309
lwrist 7.024629546770635
lhand -26.174274638522565 24.158162468860773
lfingers 7.125019999999976
lthumb 0.4215622516373818 54.33075352790364
rfemur 6.682387823361369 9.264912736268544 37.98835858349182
rtibia 18.611458625211398
rfoot -21.41427116764643 -7.13344010819727
rtoes 3.159928265443721
lfemur -31.509421437349125 -0.6751331383622048 -10.284213900585062
ltibia 35.67031956005724
lfoot -5.847414808275127 2.7132879520362785
ltoes -3.105939429768699
8
root 0 0 0 1.8526239384619132 -10.568526143447368 0.3870061820465852
lowerback 0.6347531500176982 -1.8122532837205627 -2.211327773428867
upperback 0.2167493513945794 -2.3397629334365377 1.5558411312162317
thorax 0.07728229440826295 -1.2073607002158504 2.7790414440978326
lowerneck -21.375951034791903 -0.8564605892516712 -7.604780530379086
upperneck 34.524645776370285 1.2896058475910628 0.5002836950288132
head 15.296236437925355 -0.38380949999661773 1.919886075288225
rclavicle -3.2628275480983654E-15 -3.1003653808838525E-16
rhumerus -31.466079079908155 -1.1174366280982904 -81.07686129627967
rradius 31.015456369795558
rwrist 18.24504524374517
rhand -18.41130252313215 9.509364824110463
rfingers 7.125019999999967
rthumb 7.877021360486199 -20.30620041830973
lclavicle -2.166108258947874E-15 1.817543880636331E-15
lhumerus -35.74894519427585 -14.770881837241905 99.41586692023624
lradius 60.16893812071623
lwrist 7.038070599146096
lhand -26.143948137511128 24.136693915491705
lfingers 7.125019999999976
lthumb 0.4517726996845024 54.310024020042185
rfemur 9.421814349924569 8.819017364263212 37.343362234036015
rtibia 21.373596193924165
rfoot -20.76554205681037 -6.067722666134947
rtoes -0.37733719633576435
lfemur -32.695081493593555 -3.1901209422976913 -9.102357228867492
ltibia 26.410641494328353
lfoot -5.721560273875511 4.395470602697445
ltoes -2.505816589594006
